HIERARCHY
ROOT Hips
{
	OFFSET 0.000000 0.000000 0.000000
	CHANNELS 6 Xposition Yposition Zposition Zrotation Yrotation Xrotation 
	JOINT LeftUpLeg_virtual
	{
		OFFSET 0.000000 0.000000 0.000000
		CHANNELS 3 Zrotation Yrotation Xrotation
		JOINT LeftUpLeg
		{
			OFFSET 8.479694 -4.795517 -0.379053
			CHANNELS 3 Zrotation Yrotation Xrotation
			JOINT LeftLeg
			{
				OFFSET 0.485052 -32.551468 0.112863
				CHANNELS 3 Zrotation Yrotation Xrotation
				JOINT LeftFoot
				{
					OFFSET 0.438033 -32.635670 -3.012641
					CHANNELS 3 Zrotation Yrotation Xrotation
					JOINT LeftToeBase
					{
						OFFSET 0.970169 -13.225353 11.864223
						CHANNELS 3 Zrotation Yrotation Xrotation
						End Site
						{
							OFFSET 0.000000 0.000000 0.000000
						}
					}
				}
			}
		}
	}
	JOINT RightUpLeg_virtual
	{
		OFFSET 0.000000 0.000000 0.000000
		CHANNELS 3 Zrotation Yrotation Xrotation
		JOINT RightUpLeg
		{
			OFFSET -8.479694 -4.795517 -0.379053
			CHANNELS 3 Zrotation Yrotation Xrotation
			JOINT RightLeg
			{
				OFFSET -0.484100 -32.551483 0.112903
				CHANNELS 3 Zrotation Yrotation Xrotation
				JOINT RightFoot
				{
					OFFSET -0.438985 -32.635651 -3.012681
					CHANNELS 3 Zrotation Yrotation Xrotation
					JOINT RightToeBase
					{
						OFFSET -0.970169 -13.225354 11.864223
						CHANNELS 3 Zrotation Yrotation Xrotation
						End Site
						{
							OFFSET 0.000000 0.000000 0.000000
						}
					}
				}
			}
		}
	}
	JOINT Spine_virtual
	{
		OFFSET 0.000000 0.000000 0.000000
		CHANNELS 3 Zrotation Yrotation Xrotation
		JOINT Spine
		{
			OFFSET 0.000000 7.722015 1.166203
			CHANNELS 3 Zrotation Yrotation Xrotation
			JOINT Spine1
			{
				OFFSET 0.000000 12.024086 0.248766
				CHANNELS 3 Zrotation Yrotation Xrotation
				JOINT Spine2
				{
					OFFSET -0.000000 11.503036 -0.491240
					CHANNELS 3 Zrotation Yrotation Xrotation
					JOINT Neck_virtual
					{
						OFFSET 0.000000 0.000000 0.000000
						CHANNELS 3 Zrotation Yrotation Xrotation
						JOINT Neck
						{
							OFFSET 0.000000 18.430687 -3.123054
							CHANNELS 3 Zrotation Yrotation Xrotation
							JOINT Head
							{
								OFFSET -0.000000 9.051071 1.034021
								CHANNELS 3 Zrotation Yrotation Xrotation
								End Site
								{
									OFFSET 0.000000 0.000000 0.000000
								}
							}
						}
					}
					JOINT LeftShoulder_virtual
					{
						OFFSET 0.000000 0.000000 0.000000
						CHANNELS 3 Zrotation Yrotation Xrotation
						JOINT LeftShoulder
						{
							OFFSET 6.197824 13.665230 -4.064723
							CHANNELS 3 Zrotation Yrotation Xrotation
							JOINT LeftArm
							{
								OFFSET 7.778132 -0.187073 -1.709282
								CHANNELS 3 Zrotation Yrotation Xrotation
								JOINT LeftForeArm
								{
									OFFSET 21.954697 0.000000 -2.041093
									CHANNELS 3 Zrotation Yrotation Xrotation
									JOINT LeftHand
									{
										OFFSET 22.992908 0.000000 -0.870901
										CHANNELS 3 Zrotation Yrotation Xrotation
										End Site
										{
											OFFSET 0.000000 0.000000 0.000000
										}
									}
								}
							}
						}
					}
					JOINT RightShoulder_virtual
					{
						OFFSET 0.000000 0.000000 0.000000
						CHANNELS 3 Zrotation Yrotation Xrotation
						JOINT RightShoulder
						{
							OFFSET -6.197824 13.665230 -4.064723
							CHANNELS 3 Zrotation Yrotation Xrotation
							JOINT RightArm
							{
								OFFSET -7.778132 -0.187073 -1.709282
								CHANNELS 3 Zrotation Yrotation Xrotation
								JOINT RightForeArm
								{
									OFFSET -21.954697 0.000000 -2.041093
									CHANNELS 3 Zrotation Yrotation Xrotation
									JOINT RightHand
									{
										OFFSET -22.992908 0.000000 -0.870901
										CHANNELS 3 Zrotation Yrotation Xrotation
										End Site
										{
											OFFSET 0.000000 0.000000 0.000000
										}
									}
								}
							}
						}
					}
				}
			}
		}
	}
}
MOTION
Frames: 7
Frame Time: 0.033333
-4.387956 80.695305 25.287748 -179.953491 3.497480 -179.944790 -4.847560 -0.986866 11.475921 -5.798341 6.561706 -23.040943 10.127291 4.516175 31.254631 2.565924 -11.829918 -14.441882 0.000000 0.000000 0.000000 -1.517609 -0.993562 11.139477 -1.964538 1.456226 -22.253912 -2.045468 3.388435 29.784409 9.495330 3.040099 -13.870402 0.000000 0.000000 0.000000 1.895450 1.315347 0.669137 -5.736785 0.640091 -0.698914 -0.264040 -2.513008 3.355844 -0.013825 0.029801 0.036916 -0.465091 -1.662919 4.263317 -7.557700 4.920548 -11.322360 0.000000 0.000000 0.000000 1.045686 -0.846318 1.730540 -0.365164 5.548581 -5.760127 -0.209601 -16.886080 -51.127166 4.927971 -33.424453 -4.082022 0.000000 0.000000 0.000000 -2.680868 0.306263 1.050885 20.625494 -7.945169 -7.478722 3.059732 4.315754 -59.943482 -0.553702 17.984890 3.987759 0.000000 0.000000 0.000000 
-4.342400 80.689949 25.266741 -179.954338 3.465967 -179.907784 -4.881044 -1.165449 11.604158 -5.705530 6.529178 -23.024086 10.205462 4.400930 31.446427 2.360373 -11.838162 -14.730495 0.000000 0.000000 0.000000 -1.538244 -0.999241 11.222222 -1.910447 1.374073 -22.287066 -2.274320 3.142538 29.989178 9.247731 2.756837 -14.137622 0.000000 0.000000 0.000000 1.900138 1.284486 0.669945 -5.770950 0.653449 -0.706092 -0.272756 -2.503711 3.375446 -0.010857 0.028229 0.005564 -0.456013 -1.640982 4.277085 -7.548014 4.834350 -11.301934 0.000000 0.000000 0.000000 1.045847 -0.860670 1.746360 -0.291187 5.472149 -5.653608 -0.129472 -17.086311 -51.177651 4.983387 -33.540224 -4.215615 0.000000 0.000000 0.000000 -2.648725 0.301160 1.035187 20.737646 -7.872143 -7.473908 3.051209 4.275689 -59.817595 -0.507192 18.168868 4.048462 0.000000 0.000000 0.000000 
-4.296328 80.681549 25.232697 -179.940063 3.442744 -179.914395 -4.830438 -1.224849 11.701493 -5.736540 6.386238 -23.095952 10.336075 4.561529 31.478119 2.232004 -11.906721 -14.717272 0.000000 0.000000 0.000000 -1.554339 -1.035060 11.311694 -1.850202 1.274558 -22.373900 -2.241201 3.134824 30.018869 9.259387 2.794802 -14.164293 0.000000 0.000000 0.000000 1.877744 1.270805 0.663297 -5.814551 0.656509 -0.684428 -0.288442 -2.518743 3.337084 -0.011230 0.005539 0.051904 -0.482193 -1.617763 4.343248 -7.485776 4.703337 -11.194238 0.000000 0.000000 0.000000 1.042348 -0.824206 1.739083 -0.325134 5.527051 -5.661024 -0.014416 -17.298861 -51.140413 4.937124 -33.731910 -4.198196 0.000000 0.000000 0.000000 -2.640443 0.288935 1.084763 20.807487 -7.784554 -7.514257 3.095098 4.257852 -59.793778 -0.431899 18.439691 4.161959 0.000000 0.000000 0.000000 
-4.261376 80.690300 25.189146 -179.869945 3.464606 -179.889684 -4.872930 -1.207042 11.737970 -5.627606 6.368017 -23.163287 10.370812 4.456924 31.531886 2.242190 -11.887213 -14.737605 0.000000 0.000000 0.000000 -1.521658 -1.041435 11.353496 -1.803254 1.273479 -22.434170 -2.156712 3.196650 30.027728 9.213549 2.763818 -14.125876 0.000000 0.000000 0.000000 1.900853 1.245038 0.618059 -5.804755 0.643175 -0.747455 -0.266652 -2.527836 3.419527 0.020815 -0.004579 0.033878 -0.575611 -1.694065 4.350093 -7.346338 4.480419 -11.049731 0.000000 0.000000 0.000000 0.972612 -0.812875 1.681650 -0.388657 5.591157 -5.646727 0.075716 -17.399349 -50.957890 4.960633 -33.979563 -4.260998 0.000000 0.000000 0.000000 -2.708357 0.325553 1.099460 20.837415 -7.603707 -7.501016 3.146386 4.170916 -59.805150 -0.415794 18.780082 4.210266 0.000000 0.000000 0.000000 
-4.238207 80.692612 25.137157 -179.861885 3.572794 -179.896924 -4.907672 -1.196079 11.744550 -5.591939 6.338133 -23.149456 10.418251 4.425656 31.599635 2.285947 -11.820923 -14.755830 0.000000 0.000000 0.000000 -1.557260 -1.034711 11.342615 -1.757843 1.214776 -22.426825 -2.102254 3.217391 30.081287 9.226916 2.785498 -14.102633 0.000000 0.000000 0.000000 1.863460 1.249983 0.564331 -5.828332 0.674630 -0.818534 -0.274355 -2.519988 3.412657 0.016329 0.014536 0.029910 -0.604092 -1.716248 4.432726 -7.104029 4.173002 -10.850046 0.000000 0.000000 0.000000 0.990019 -0.943705 1.735322 -0.610976 5.732442 -5.639482 0.158717 -17.421571 -51.070387 4.731613 -34.161615 -4.132524 0.000000 0.000000 0.000000 -2.711475 0.277488 1.199705 20.815620 -7.449908 -7.456698 3.257573 4.008560 -59.881962 -0.386761 19.123218 4.229106 0.000000 0.000000 0.000000 
-4.214185 80.698830 25.079445 -179.867786 3.666503 -179.906459 -4.983327 -1.209892 11.698079 -5.527550 6.341252 -23.100451 10.477287 4.400134 31.662554 2.301739 -11.784442 -14.774978 0.000000 0.000000 0.000000 -1.610910 -1.045369 11.288868 -1.714152 1.194633 -22.366417 -2.033405 3.253693 30.099073 9.257218 2.812295 -14.040319 0.000000 0.000000 0.000000 1.835805 1.203402 0.492745 -5.827952 0.663766 -0.888613 -0.263994 -2.539739 3.472625 0.005682 0.005053 0.064940 -0.580014 -1.698644 4.467919 -6.726973 3.825939 -10.613307 0.000000 0.000000 0.000000 0.997350 -0.835597 1.795890 -0.867412 5.727700 -5.561408 0.162056 -17.318566 -51.174113 4.647794 -34.277660 -4.143249 0.000000 0.000000 0.000000 -2.669489 0.286460 1.254321 20.872998 -7.178139 -7.356028 3.254116 3.787094 -60.240158 -0.260660 19.335453 4.295307 0.000000 0.000000 0.000000 
-4.190969 80.710373 25.025961 -179.868510 3.820235 -179.888072 -5.044767 -1.185888 11.636377 -5.464907 6.350079 -23.050715 10.552431 4.397628 31.730931 2.313990 -11.742552 -14.764087 0.000000 0.000000 0.000000 -1.651203 -1.012767 11.210804 -1.679546 1.182962 -22.296258 -1.978504 3.268116 30.126889 9.288418 2.818862 -13.976524 0.000000 0.000000 0.000000 1.819549 1.194639 0.459269 -5.801394 0.677899 -0.960485 -0.210195 -2.554783 3.521814 0.010037 0.022118 0.028261 -0.548756 -1.743237 4.607906 -6.157564 3.379534 -10.283538 0.000000 0.000000 0.000000 1.025007 -0.905886 1.911481 -1.199705 5.765091 -5.630186 -0.057302 -17.001540 -51.198470 4.454370 -34.330368 -4.048818 0.000000 0.000000 0.000000 -2.641279 0.236682 1.389373 20.821700 -6.985319 -7.206171 3.378474 3.596075 -60.389780 -0.277574 19.475101 4.225350 0.000000 0.000000 0.000000 
